<svg version="1.1" id="Layer_1" xmlns="http://www.w3.org/2000/svg" xmlns:xlink="http://www.w3.org/1999/xlink" x="0px" y="0px"
	 width="100%" viewBox="0 0 496 496" enable-background="new 0 0 496 496" xml:space="preserve">
<path fill="#000000" opacity="1.000000" stroke="none" 
	d="
M407.041870,279.802460 
	C386.125488,339.785248 345.063141,378.384796 283.408539,390.559662 
	C188.415390,409.317871 106.157959,347.431091 90.715385,260.556030 
	C79.416077,196.989731 99.628174,144.029663 149.251678,102.638557 
	C173.469009,82.438812 201.853119,70.727318 232.956024,68.062393 
	C292.263367,62.980873 341.966095,82.740982 379.696014,129.768112 
	C398.387543,153.065506 409.208649,179.886047 413.060211,209.364960 
	C416.154938,233.051102 414.511780,256.523132 407.041870,279.802460 
M251.349442,120.500557 
	C251.348999,157.498627 251.350861,194.496704 251.341782,231.494781 
	C251.341293,233.492966 251.469376,235.525299 251.165619,237.484055 
	C247.549530,260.801788 226.900101,280.749969 199.053085,278.217377 
	C174.206421,275.957611 156.590439,255.947739 155.818817,232.292160 
	C155.192947,213.104752 163.578552,198.239075 180.236237,188.984451 
	C197.235352,179.540115 214.416397,180.570511 230.796890,191.317688 
	C233.521683,193.105408 236.095047,195.123871 239.650101,197.695129 
	C239.650101,189.129623 239.650635,181.538101 239.650009,173.946579 
	C239.648132,151.447647 239.576508,128.948288 239.709106,106.450157 
	C239.732300,102.516052 238.928253,101.161751 234.597916,101.916656 
	C229.032013,102.886963 223.405289,103.595673 217.946213,105.044106 
	C153.847519,122.051208 110.991135,185.526459 123.265244,252.176224 
	C132.195831,300.670380 160.150650,333.930359 205.747269,352.170349 
	C221.955963,358.654266 239.043152,361.220276 256.622742,360.249420 
	C261.675720,359.970367 262.852966,357.984131 262.829132,353.180664 
	C262.634033,313.850189 262.720398,274.518372 262.677917,235.187012 
	C262.671967,229.668381 262.934906,224.141037 264.267975,218.822861 
	C270.522064,193.872360 296.261566,178.050858 321.287598,183.961670 
	C345.240448,189.618973 362.596100,211.052521 357.836639,239.450195 
	C351.830048,275.288849 307.569580,290.795258 279.905823,267.299805 
	C278.623810,266.210938 277.639526,264.486572 275.219818,264.407593 
	C275.219818,294.491913 275.224731,324.308746 275.213043,354.125580 
	C275.211731,357.510132 276.797577,357.789124 279.749390,357.096161 
	C301.946808,351.885040 321.712646,342.000031 338.330261,326.325195 
	C373.560394,293.093842 387.098511,252.374817 378.102509,204.884735 
	C371.499939,170.029678 352.532196,142.646561 323.217194,122.726776 
	C303.063324,109.032059 280.660034,101.780388 256.182434,101.131805 
	C252.433685,101.032478 251.107040,102.310249 251.296921,106.004433 
	C251.527618,110.492325 251.350555,115.001183 251.349442,120.500557 
M206.097214,265.609406 
	C208.050690,265.216644 210.039993,264.950745 211.951935,264.410858 
	C226.487198,260.306427 235.551590,250.729996 238.097839,235.989471 
	C240.480515,222.195969 235.379288,210.544479 224.144272,202.338821 
	C212.712036,193.989075 200.075485,193.207520 187.405396,199.620010 
	C173.310669,206.753540 166.081345,223.056320 169.751831,238.448059 
	C173.682281,254.929871 187.625900,265.614685 206.097214,265.609406 
M324.867249,262.462036 
	C326.320343,261.652496 327.810303,260.902222 329.220886,260.024384 
	C344.718201,250.380173 350.130920,231.007584 341.947540,214.544983 
	C334.199493,198.958099 315.055725,191.598724 298.517090,197.849167 
	C280.673248,204.592880 271.551880,224.648438 278.054993,242.468018 
	C284.279938,259.525269 304.448792,271.187317 324.867249,262.462036 
z"/>
</svg>