<?xml version="1.0" encoding="UTF-8"?>
<svg version="1.1" xmlns="http://www.w3.org/2000/svg" width="500" height="500">
<path d="M0 0 C165 0 330 0 500 0 C500 165 500 330 500 500 C335 500 170 500 0 500 C0 335 0 170 0 0 Z " fill="#FEFEFE" transform="translate(0,0)"/>
<path d="M0 0 C15.4996875 -0.12375 15.4996875 -0.12375 31.3125 -0.25 C34.55360596 -0.28641602 37.79471191 -0.32283203 41.1340332 -0.36035156 C43.73127583 -0.3720448 46.32852585 -0.38223512 48.92578125 -0.390625 C49.58539352 -0.40107849 50.2450058 -0.41153198 50.92460632 -0.42230225 C61.83419835 -0.58628308 72.22478659 0.40496666 80.5 8.22265625 C86.08633084 14.84187638 88.40816095 21.65761041 88.26953125 30.21484375 C87.44811199 38.70284276 84.0926795 44.70817782 78 50.5390625 C75.95406551 52.03355371 74.47849408 52.59060589 72 53 C73.37561824 55.75123649 74.7538719 55.76115225 77.625 56.75 C85.98373003 59.99333034 90.90977058 65.07306778 95 73 C97.80152463 81.40457389 97.48648013 94.52552836 94.4375 102.8125 C89.2929335 112.85067853 82.03673909 117.24049448 71.8125 121.25 C66.41098237 122.6904047 61.08808075 123.1249245 55.51391602 123.11352539 C54.25599243 123.11340454 52.99806885 123.11328369 51.70202637 123.11315918 C50.39914673 123.10804321 49.09626709 123.10292725 47.75390625 123.09765625 C46.54214722 123.09664917 45.33038818 123.09564209 44.08190918 123.09460449 C39.57542976 123.08939078 35.06896388 123.07542955 30.5625 123.0625 C20.476875 123.041875 10.39125 123.02125 0 123 C0 82.41 0 41.82 0 0 Z " fill="#010101" transform="translate(227,181)"/>
<path d="M0 0 C3.69666509 2.19293692 6.05554924 4.86110203 8.5 8.375 C8.5 9.035 8.5 9.695 8.5 10.375 C9.16 9.67375 9.82 8.9725 10.5 8.25 C17.08040461 1.70698405 22.33850665 -1.67606963 31.75 -1.9375 C37.36153028 -1.84686963 41.91515996 -0.99018356 46.5 2.375 C51.1528318 7.80167119 53.62967162 12.67113018 53.61352539 19.85620117 C53.61341209 21.53760445 53.61341209 21.53760445 53.61329651 23.25297546 C53.60813522 24.46242325 53.60297394 25.67187103 53.59765625 26.91796875 C53.5962413 28.15670242 53.59482635 29.3954361 53.59336853 30.67170715 C53.58871602 33.96131537 53.5797339 37.2508746 53.56866455 40.54046631 C53.55842629 43.89871623 53.55386574 47.25697333 53.54882812 50.61523438 C53.53779145 57.2018446 53.5205229 63.78841278 53.5 70.375 C47.56 70.375 41.62 70.375 35.5 70.375 C35.48541748 68.85100586 35.47083496 67.32701172 35.45581055 65.75683594 C35.39786658 60.10604308 35.32063288 54.45565034 35.23754883 48.80517578 C35.20428123 46.35895274 35.17625509 43.9126526 35.15356445 41.46630859 C35.12005292 37.95116295 35.06773724 34.43672505 35.01171875 30.921875 C35.00532883 29.8269574 34.9989389 28.73203979 34.99235535 27.60394287 C34.97256119 26.58318665 34.95276703 25.56243042 34.93237305 24.51074219 C34.92126999 23.61361511 34.91016693 22.71648804 34.89872742 21.79217529 C34.41749286 18.87482314 33.52914072 17.50317276 31.5 15.375 C26.77477385 13.79992462 22.42592295 13.71843536 17.75 15.3125 C13.17929137 19.50231624 11.33151721 25.34192504 10.95410156 31.43579102 C10.91346418 33.24983102 10.89305881 35.06441277 10.890625 36.87890625 C10.87408875 37.8427977 10.85755249 38.80668915 10.84051514 39.79978943 C10.79235017 42.8457598 10.77073439 45.89123211 10.75 48.9375 C10.72181397 51.01630068 10.6918829 53.09507847 10.66015625 55.17382812 C10.58659975 60.24084435 10.53683311 65.30758917 10.5 70.375 C4.89 70.375 -0.72 70.375 -6.5 70.375 C-6.51458252 68.88653564 -6.52916504 67.39807129 -6.54418945 65.86450195 C-6.60219091 60.33854225 -6.67942447 54.81298923 -6.76245117 49.28735352 C-6.79569167 46.89647017 -6.82372629 44.50550852 -6.84643555 42.11450195 C-6.87999683 38.67625581 -6.93231524 35.23872671 -6.98828125 31.80078125 C-6.99467117 30.73289871 -7.0010611 29.66501617 -7.00764465 28.56477356 C-7.05588001 21.44565831 -7.05588001 21.44565831 -10.5 15.375 C-13.97673705 13.63663148 -17.69870798 13.92063681 -21.5 14.375 C-26.53135703 16.79750523 -28.49911886 19.23048925 -30.5 24.375 C-30.95528808 27.92355925 -30.9882977 31.44893152 -31.01171875 35.0234375 C-31.02966995 36.03596588 -31.04762115 37.04849426 -31.06611633 38.09170532 C-31.12009958 41.31109511 -31.15407707 44.53033763 -31.1875 47.75 C-31.2206836 49.93882252 -31.25517422 52.12762564 -31.29101562 54.31640625 C-31.37581943 59.6691644 -31.44268811 65.02187976 -31.5 70.375 C-37.44 70.375 -43.38 70.375 -49.5 70.375 C-49.5 46.945 -49.5 23.515 -49.5 -0.625 C-43.89 -0.625 -38.28 -0.625 -32.5 -0.625 C-32.5 2.675 -32.5 5.975 -32.5 9.375 C-31.819375 8.653125 -31.13875 7.93125 -30.4375 7.1875 C-22.21612274 -1.03387726 -11.34037108 -5.22567769 0 0 Z " fill="#040404" transform="translate(130.5,181.625)"/>
<path d="M0 0 C7.92 0 15.84 0 24 0 C24 40.59 24 81.18 24 123 C16.08 123 8.16 123 0 123 C0 82.41 0 41.82 0 0 Z " fill="#000000" transform="translate(196,181)"/>
<path d="M0 0 C5.61 -0.0825 11.22 -0.165 17 -0.25 C18.75441406 -0.28641602 20.50882812 -0.32283203 22.31640625 -0.36035156 C23.73175845 -0.3720513 25.14712428 -0.38224007 26.5625 -0.390625 C27.27728516 -0.41108887 27.99207031 -0.43155273 28.72851562 -0.45263672 C34.23035674 -0.45638457 38.39285548 0.97240514 43 4 C47.8785074 9.12868726 48.30103929 13.38122205 48.2109375 20.2109375 C47.7960793 25.69628476 46.14478946 28.85521054 42.1875 32.8125 C36.68403642 36.58938677 31.75421539 37.29373867 25.1953125 37.1953125 C24.55263428 37.19329834 23.90995605 37.19128418 23.24780273 37.18920898 C20.87346135 37.17883578 18.49922263 37.15091395 16.125 37.125 C10.80375 37.08375 5.4825 37.0425 0 37 C0 24.79 0 12.58 0 0 Z " fill="#FBFBFB" transform="translate(251,248)"/>
<path d="M0 0 C5.34006899 2.32667114 8.00577601 6.23062143 10.47265625 11.38671875 C12.85665282 18.53870847 11.75885515 25.39733289 8.7421875 32.1875 C5.90168818 37.10811883 1.80114308 39.5869791 -3.52734375 41.38671875 C-9.74306679 42.0833864 -15.24497878 42.03406599 -20.52734375 38.38671875 C-25.3672317 34.222164 -28.19166388 30.19009927 -28.9609375 23.765625 C-28.97423926 10.76980279 -28.97423926 10.76980279 -24.52734375 5.38671875 C-17.44063102 -1.48305379 -9.61491961 -2.33314123 0 0 Z " fill="#070707" transform="translate(356.52734375,256.61328125)"/>
<path d="M0 0 C7.486875 -0.12375 7.486875 -0.12375 15.125 -0.25 C17.47069092 -0.30462402 17.47069092 -0.30462402 19.86376953 -0.36035156 C21.10755371 -0.3703418 22.35133789 -0.38033203 23.6328125 -0.390625 C24.90012207 -0.41157227 26.16743164 -0.43251953 27.47314453 -0.45410156 C31.64393089 0.08290956 33.74771224 1.38549776 37 4 C40.78016635 9.16622734 40.70553249 14.8383496 40 21 C38.6875 24 38.6875 24 37 26 C36.566875 26.556875 36.13375 27.11375 35.6875 27.6875 C31.42763919 31.00072508 26.49823805 31.2431031 21.2890625 31.1953125 C19.60611084 31.18781982 19.60611084 31.18781982 17.88916016 31.18017578 C15.77840088 31.15286377 15.77840088 31.15286377 13.625 31.125 C9.12875 31.08375 4.6325 31.0425 0 31 C0 20.77 0 10.54 0 0 Z " fill="#FBFBFB" transform="translate(251,199)"/>
<path d="M0 0 C3.81575433 1.29463093 5.42150933 2.22202979 7.8125 5.4375 C10.00859044 10.17643201 10.13573668 14.43593492 10.09765625 19.609375 C10.0962413 20.33618469 10.09482635 21.06299438 10.09336853 21.81182861 C10.08778792 24.12459494 10.07523904 26.43726312 10.0625 28.75 C10.05748249 30.32161318 10.05292002 31.89322789 10.04882812 33.46484375 C10.03782485 37.30993343 10.02057361 41.1549501 10 45 C6.37 45 2.74 45 -1 45 C-1.0093457 44.08186523 -1.01869141 43.16373047 -1.02832031 42.21777344 C-1.07239931 38.80294722 -1.13403732 35.38936892 -1.20751953 31.97509766 C-1.23570088 30.49897804 -1.25692966 29.02270831 -1.27099609 27.54638672 C-1.29246698 25.42076943 -1.33913043 23.29695121 -1.390625 21.171875 C-1.41157227 19.8940918 -1.43251953 18.61630859 -1.45410156 17.29980469 C-2.0853584 13.48403213 -2.92195701 12.27105493 -6 10 C-9.93474728 9.33025578 -11.47334208 9.64889472 -14.8125 11.875 C-18.37949172 15.34007767 -18.16799196 17.66259286 -18.31640625 22.5390625 C-18.35830078 23.84101563 -18.40019531 25.14296875 -18.44335938 26.484375 C-18.48317299 27.86458045 -18.52288522 29.24478883 -18.5625 30.625 C-18.60569407 32.01303415 -18.64930865 33.40105528 -18.69335938 34.7890625 C-18.79972 38.19260256 -18.90174714 41.59621778 -19 45 C-22.63 45 -26.26 45 -30 45 C-30 30.48 -30 15.96 -30 1 C-26.7 1 -23.4 1 -20 1 C-20 2.98 -20 4.96 -20 7 C-19.51789063 6.57847656 -19.03578125 6.15695312 -18.5390625 5.72265625 C-17.90742188 5.17480469 -17.27578125 4.62695312 -16.625 4.0625 C-15.68527344 3.24458984 -15.68527344 3.24458984 -14.7265625 2.41015625 C-10.40808792 -1.11692367 -5.32875841 -0.41395722 0 0 Z " fill="#030303" transform="translate(177,259)"/>
<path d="M0 0 C3.63 0 7.26 0 11 0 C13.31 4.29 15.62 8.58 18 13 C19.11375 10.855 20.2275 8.71 21.375 6.5 C24.85051522 0.35982456 24.85051522 0.35982456 28.7578125 -0.86328125 C31.28450675 -0.81649062 33.5451367 -0.58856354 36 0 C34.05455316 5.29319545 31.19587323 9.98463431 28.36328125 14.84375 C26.80329746 18.45540301 26.63789814 19.37487852 28 23 C29.42146363 25.97372999 30.97304324 28.86317654 32.5625 31.75 C33.39880407 33.28555071 34.23352974 34.8219625 35.06640625 36.359375 C35.43709229 37.03452148 35.80777832 37.70966797 36.18969727 38.40527344 C37 40 37 40 37 41 C33.37 41 29.74 41 26 41 C24.82823482 38.87767021 23.66245215 36.75242209 22.5 34.625 C22.16613281 34.02171875 21.83226562 33.4184375 21.48828125 32.796875 C19 28.2265625 19 28.2265625 19 26 C18.34 26 17.68 26 17 26 C16.773125 26.804375 16.54625 27.60875 16.3125 28.4375 C14.65152007 32.94587411 12.39720404 36.83643508 10 41 C6.37 41 2.74 41 -1 41 C0.26920136 38.6032896 1.54030187 36.20761907 2.8125 33.8125 C3.16892578 33.13896484 3.52535156 32.46542969 3.89257812 31.77148438 C4.24384766 31.11083984 4.59511719 30.45019531 4.95703125 29.76953125 C5.29943848 29.11936035 5.6418457 28.46918945 5.99462891 27.79931641 C7 26 7 26 8.88671875 23.32421875 C10.27292161 21.05326619 10.27292161 21.05326619 9.4453125 18.63671875 C7.27906431 14.68477949 5.04388808 10.78424028 2.74609375 6.90820312 C0 2.20564332 0 2.20564332 0 0 Z " fill="#080808" transform="translate(414,256)"/>
<path d="M0 0 C6.71709572 5.92684917 6.71709572 5.92684917 7.61328125 10.20703125 C7.91143411 15.75267444 6.86125398 19.73897844 3.6015625 24.24609375 C0.16240802 28.04008163 -3.42212776 29.03826379 -8.375 29.3125 C-14.23041145 29.08615636 -17.33886687 26.5324068 -21.25 22.3125 C-23.55112289 17.44474005 -23.65504618 13.16985889 -22.875 7.875 C-18.38986575 -1.42750067 -9.42356685 -3.68748268 0 0 Z " fill="#3AB6FF" transform="translate(213.875,143.125)"/>
<path d="M0 0 C0 2.97 0 5.94 0 9 C3.96 9 7.92 9 12 9 C12 11.64 12 14.28 12 17 C8.04 17 4.08 17 0 17 C0.14035305 20.62528953 0.28702517 24.25012883 0.4375 27.875 C0.47681641 28.90753906 0.51613281 29.94007813 0.55664062 31.00390625 C0.59853516 31.99003906 0.64042969 32.97617187 0.68359375 33.9921875 C0.72025146 34.90339355 0.75690918 35.81459961 0.79467773 36.75341797 C0.86577065 39.03483481 0.86577065 39.03483481 2 41 C4.97 41 7.94 41 11 41 C11.66 43.31 12.32 45.62 13 48 C8.20761189 50.87543287 4.46377968 51.79611959 -1 51 C-5.80648351 49.27692101 -7.78278108 47.55269485 -10 43 C-10.34057617 40.0456543 -10.34057617 40.0456543 -10.29296875 36.82421875 C-10.28330078 35.66728516 -10.27363281 34.51035156 -10.26367188 33.31835938 C-10.23853516 32.12017578 -10.21339844 30.92199219 -10.1875 29.6875 C-10.17396484 28.46998047 -10.16042969 27.25246094 -10.14648438 25.99804688 C-10.11119261 22.99824655 -10.06188481 19.99935025 -10 17 C-11.98 17 -13.96 17 -16 17 C-16 14.69 -16 12.38 -16 10 C-14.02 10 -12.04 10 -10 10 C-10 7.03 -10 4.06 -10 1 C-6.52674819 -0.1577506 -3.63932552 -0.06866652 0 0 Z " fill="#070707" transform="translate(385,247)"/>
<path d="M0 0 C3.3 0 6.6 0 10 0 C10 13.53 10 27.06 10 41 C6.7 41 3.4 41 0 41 C0 27.47 0 13.94 0 0 Z " fill="#060606" transform="translate(401,256)"/>
<path d="M0 0 C0.76183594 0.05285156 1.52367187 0.10570312 2.30859375 0.16015625 C5.62982339 1.30560633 6.74488329 2.97319892 8.5625 5.9375 C9.09375 9.09375 9.09375 9.09375 9.0625 12.4375 C9.0728125 13.5409375 9.083125 14.644375 9.09375 15.78125 C8.45854322 19.55512556 7.20281135 21.21837339 4.5625 23.9375 C1.42378812 25.50685594 -0.97605822 25.28951103 -4.4375 24.9375 C-7.06766161 22.7647578 -8.91086894 20.99076212 -10.4375 17.9375 C-10.85001687 13.01109656 -11.0901414 8.46032992 -9.125 3.875 C-6.24136783 0.56416307 -4.26986591 -0.39602466 0 0 Z " fill="#F6F6F6" transform="translate(348.4375,264.0625)"/>
<path d="M0 0 C2.375 1.625 2.375 1.625 4 4 C4.61564756 7.69388534 4.46062609 9.30906087 2.375 12.4375 C0 14 0 14 -3.0625 13.9375 C-7.48421053 12.52631579 -7.48421053 12.52631579 -9 10 C-9.63316583 4.09045226 -9.63316583 4.09045226 -7.875 1.0625 C-5.06487736 -0.52990283 -3.17235276 -0.45319325 0 0 Z " fill="#3FB3F6" transform="translate(408,238)"/>
</svg>
