<?xml version="1.0" encoding="UTF-8"?>
<svg version="1.1" xmlns="http://www.w3.org/2000/svg" width="500" height="500">
<path d="M0 0 C165 0 330 0 500 0 C500 165 500 330 500 500 C335 500 170 500 0 500 C0 335 0 170 0 0 Z " fill="#000000" transform="translate(0,0)"/>
<path d="M0 0 C12.68163421 -1.92694961 12.68163421 -1.92694961 18.00292969 1.16308594 C21.89090024 4.20976456 25.23341733 7.78294511 28.54882812 11.43212891 C30.33037817 13.35694627 32.24479531 15.06161765 34.25 16.75 C37.20061765 19.29711438 40.10698786 21.88752237 43 24.5 C45.98062721 27.18983431 48.97245233 29.86310364 52 32.5 C55.89512811 35.89253093 59.72782763 39.35194201 63.5625 42.8125 C66.33497308 45.30061687 69.13844849 47.75067464 71.94921875 50.1953125 C74.26088797 52.22958141 76.5353143 54.3022231 78.8125 56.375 C82.18940982 59.42858867 85.63217132 62.34429205 89.1875 65.1875 C94.72885033 69.65709919 99.89423555 74.48432919 105.04956055 79.39135742 C105.97055542 80.26497925 105.97055542 80.26497925 106.91015625 81.15625 C107.45808838 81.68025391 108.00602051 82.20425781 108.57055664 82.74414062 C109.99632699 84.10415176 109.99632699 84.10415176 112 85 C112 77.41 112 69.82 112 62 C115.3 62.66 118.6 63.32 122 64 C128.37243595 64.49922309 134.00646662 64.39741335 140 62 C141.32 62 142.64 62 144 62 C144 69.59 144 77.18 144 85 C150.53390807 79.28557456 150.53390807 79.28557456 157 73.5 C162.32334693 68.70092208 167.68863339 63.9592205 173.15234375 59.3203125 C179.73318179 53.72558261 186.19765898 48.04264888 192.51953125 42.15625 C195.97369374 38.94030561 199.47435592 35.79482045 203.04296875 32.70703125 C205.3855915 30.66366569 207.69273422 28.58319141 210 26.5 C213.61540205 23.2373201 217.2608956 20.0142505 220.93359375 16.81640625 C223.32896392 14.71083512 225.69605142 12.57551312 228.0625 10.4375 C228.91714844 9.6846875 229.77179688 8.931875 230.65234375 8.15625 C232.96265013 6.12120702 232.96265013 6.12120702 234.62890625 4.09375 C237.51407787 0.89972189 239.71867294 -0.12548276 243.98828125 -0.36328125 C248.00635878 -0.43403145 251.99080909 -0.25989953 256 0 C255.24332031 0.75539062 254.48664063 1.51078125 253.70703125 2.2890625 C252.21980918 3.77843063 250.7350409 5.27031782 249.26171875 6.7734375 C245.70080528 10.39620306 242.01370728 13.79958714 238.16796875 17.1171875 C235.75157049 19.2157532 233.37470976 21.354397 231 23.5 C227.37976277 26.76704335 223.73016435 29.99520776 220.05078125 33.1953125 C217.73911203 35.22958141 215.4646857 37.3022231 213.1875 39.375 C209.81059018 42.42858867 206.36782868 45.34429205 202.8125 48.1875 C196.75397699 53.08423238 191.13189607 58.41015988 185.46484375 63.75 C180.16820624 68.73708449 174.73440764 73.51999403 169 78 C172.80951869 86.57640333 180.50041159 93.61223663 186.75390625 100.47265625 C189.06187598 103.06962393 191.25555863 105.73404013 193.4375 108.4375 C197.29825137 113.211403 201.37437075 117.73388428 205.53125 122.25 C208.72881296 125.81184229 211.71388343 129.52565833 214.71875 133.25 C217.06718968 136.08099578 219.50909902 138.79383598 222 141.5 C226.11378909 145.9698512 229.97087297 150.59044893 233.78515625 155.31640625 C235.95632827 157.94708557 238.20241357 160.47942424 240.5 163 C243.59555196 166.39598682 246.55151207 169.86171531 249.4375 173.4375 C252.54959372 177.28824074 255.76909827 180.98478587 259.125 184.625 C271 197.5390625 271 197.5390625 271 200 C239.03856865 202.2498675 239.03856865 202.2498675 232.38671875 197.4921875 C229.7482057 194.90122602 227.79660073 191.95522548 225.99902344 188.73535156 C224.48040557 186.09743958 222.53054926 183.87582106 220.5625 181.5625 C219.85222656 180.67691406 219.14195312 179.79132813 218.41015625 178.87890625 C215.02592347 174.83647585 211.41034377 171.02866183 207.79711914 167.19165039 C204.55436739 163.72921156 201.46563219 160.20704024 198.5 156.5 C193.93958074 150.80368295 188.98265337 145.52680934 183.99609375 140.20703125 C179.61883286 135.5360668 175.4485711 130.70252459 171.30078125 125.828125 C170.28417908 124.63513971 169.26724149 123.44244019 168.25 122.25 C167.73953125 121.6513916 167.2290625 121.0527832 166.703125 120.43603516 C162.34647514 115.35191212 157.84419844 110.41889114 153.27734375 105.5234375 C151 103 151 103 149.44140625 100.6640625 C148.96574219 100.11492187 148.49007812 99.56578125 148 99 C146.68 99 145.36 99 144 99 C144.07855225 99.98170166 144.15710449 100.96340332 144.23803711 101.97485352 C146.42564684 131.84108311 146.42564684 131.84108311 140.66015625 139.6640625 C137.16861561 143.39131896 133.32200103 146.29874936 129 149 C121.75754125 145.42696189 115.23184261 141.74026956 112 134 C109.8757687 122.67822619 111.21661524 110.41702167 112 99 C107.41366935 99.73915069 105.79045663 100.8052787 102.75 104.375 C101.96625 105.28507812 101.1825 106.19515625 100.375 107.1328125 C98.14660831 109.82300905 95.94398565 112.53171631 93.75 115.25 C89.6504808 120.32423006 85.26629138 125.0623033 80.79785156 129.80761719 C77.55481169 133.27026747 74.46585125 136.79268593 71.5 140.5 C67.49652544 145.5043432 63.18663292 150.14699302 58.796875 154.80859375 C55.55421929 158.27096211 52.46555917 161.79305103 49.5 165.5 C44.947021 171.18702358 39.99948848 176.4559765 35.01953125 181.765625 C28.94652604 187.81935009 28.94652604 187.81935009 24.08691406 194.76245117 C22.58416332 197.19842119 21.43962276 198.45849566 19 200 C13.19016255 200.89224574 7.48239933 200.65892808 1.625 200.4375 C0.01439033 200.40236001 -1.59629268 200.37042568 -3.20703125 200.34179688 C-7.13983917 200.26493275 -11.06911245 200.14430804 -15 200 C-12.89483491 196.40041378 -10.72322001 193.42739348 -7.875 190.375 C-4.64822007 186.85629813 -1.55724384 183.28066331 1.4375 179.5625 C5.29825137 174.788597 9.37437075 170.26611572 13.53125 165.75 C15.94378104 163.06262366 18.2325621 160.31034556 20.5 157.5 C23.55348679 153.71539666 26.70668301 150.07792463 30 146.5 C34.11378909 142.0301488 37.97087297 137.40955107 41.78515625 132.68359375 C44.66480887 129.19449084 47.70693876 125.87003079 50.75390625 122.52734375 C53.06187598 119.93037607 55.25555863 117.26595987 57.4375 114.5625 C60.51336588 110.75912497 63.68753166 107.09917348 67 103.5 C71.16214245 98.97593212 75.0870852 94.30870624 78.94921875 89.52734375 C81.57126504 86.29598385 84.27476207 83.1445053 87 80 C85.66240755 76.95763286 84.29407555 75.12375002 81.75 73 C81.03714844 72.39542969 80.32429688 71.79085937 79.58984375 71.16796875 C78.73519531 70.45253906 77.88054687 69.73710937 77 69 C74.7658983 67.10993432 72.53811853 65.21254477 70.3125 63.3125 C69.71453613 62.80243408 69.11657227 62.29236816 68.50048828 61.7668457 C63.72432898 57.67090414 59.08486454 53.44347839 54.48046875 49.15625 C51.02630626 45.94030561 47.52564408 42.79482045 43.95703125 39.70703125 C41.6144085 37.66366569 39.30726578 35.58319141 37 33.5 C34.01937279 30.81016569 31.02754767 28.13689636 28 25.5 C24.97245233 22.86310364 21.98062721 20.18983431 19 17.5 C13.58041611 12.6123998 8.15028304 7.74555856 2.5 3.125 C1.675 2.42375 0.85 1.7225 0 1 C0 0.67 0 0.34 0 0 Z " fill="#FCFCFC" transform="translate(122,158)"/>
<path d="M0 0 C1.60875 0.99 1.60875 0.99 3.25 2 C8.69644349 4.7087108 14.03714487 4.85066795 20 4 C22.67317456 2.92517071 24.61323241 1.66036006 27 0 C27.66 0 28.32 0 29 0 C29.56714817 10.81782628 29.56714817 10.81782628 26 15 C21.50699385 19.04370553 18.17597426 20.35649052 12.0625 20.2890625 C7.59651867 19.66314845 3.81483131 16.40742738 1 13 C-0.00496852 9.98509443 -0.10335303 7.95818308 -0.0625 4.8125 C-0.05347656 3.91144531 -0.04445312 3.01039063 -0.03515625 2.08203125 C-0.02355469 1.39496094 -0.01195312 0.70789063 0 0 Z " fill="#FBFBFB" transform="translate(235,198)"/>
</svg>
